# xmcd
#
# Track frame offsets: 
#        150
#        12737
#        30417
#        51999
#        67635
#        82305
#        96322
#        116093
#        127881
#        142494
#        158653
#        175845
#
# Disc length: 2516 seconds
#
# Revision: 3
# Processed by: cddbd v1.5.2PL0 Copyright (c) Steve Scherf et al.
# Submitted via: ExactAudioCopyFreeDBPlugin 1.0
#
DISCID=a609d20c
DTITLE=Little Big Town - The Breaker
DYEAR=2017
DGENRE=Country
TTITLE0=Happy People
TTITLE1=Night On Our Side
TTITLE2=Lost In California
TTITLE3=Free
TTITLE4=Drivin' Around
TTITLE5=We Went To The Beach
TTITLE6=Better Man
TTITLE7=Rollin'
TTITLE8=Don't Die Young, Don't Get Old
TTITLE9=Beat Up Bible
TTITLE10=When Someone Stops Loving You
TTITLE11=The Breaker
EXTD=YEAR: 2017
EXTT0=
EXTT1=
EXTT2=
EXTT3=
EXTT4=
EXTT5=
EXTT6=
EXTT7=
EXTT8=
EXTT9=
EXTT10=
EXTT11=
PLAYORDER=
